PathFileType	4	(X/Y/Z)	C:/Users/opensim2020/Desktop/walking_exp_matlab/subject06_walking19_straight_01.trc	
DataRate	CameraRate	NumFrames	NumMarkers	Units	OrigDataRate	OrigDataStartFrame	OrigNumFrames	
100.00	100.00	4	49	mm	100.00	861	472	
Frame#	Time	LFHD			RFHD			LBHD			RBHD			C7			T10			CLAV			STRN			RBAK			LSHO			LUPA			LELB			LFRM			LWRA			LWRB			LFIN			RSHO			RUPA			RELB			RFRM			RWRA			RWRB			RFIN			LASI			RASI			LPSI			RPSI			LTHI			LKNE			LTIB			LANK			LHEE			LTOE			RTHI			RKNE			RTIB			RANK			RHEE			RTOE			*39			*40			*41			*42			*43			*44			*45			*46			*47			*48			
		X1	Y1	Z1	X2	Y2	Z2	X3	Y3	Z3	X4	Y4	Z4	X5	Y5	Z5	X6	Y6	Z6	X7	Y7	Z7	X8	Y8	Z8	X9	Y9	Z9	X10	Y10	Z10	X11	Y11	Z11	X12	Y12	Z12	X13	Y13	Z13	X14	Y14	Z14	X15	Y15	Z15	X16	Y16	Z16	X17	Y17	Z17	X18	Y18	Z18	X19	Y19	Z19	X20	Y20	Z20	X21	Y21	Z21	X22	Y22	Z22	X23	Y23	Z23	X24	Y24	Z24	X25	Y25	Z25	X26	Y26	Z26	X27	Y27	Z27	X28	Y28	Z28	X29	Y29	Z29	X30	Y30	Z30	X31	Y31	Z31	X32	Y32	Z32	X33	Y33	Z33	X34	Y34	Z34	X35	Y35	Z35	X36	Y36	Z36	X37	Y37	Z37	X38	Y38	Z38	X39	Y39	Z39	X40	Y40	Z40	X41	Y41	Z41	X42	Y42	Z42	X43	Y43	Z43	X44	Y44	Z44	X45	Y45	Z45	X46	Y46	Z46	X47	Y47	Z47	X48	Y48	Z48	X49	Y49	Z49	

1	0.000	1307.69104	-1242.50952	1662.16357	1439.44312	-1240.83618	1661.84460	1311.91052	-1374.80042	1604.61084	1441.09424	-1371.48828	1608.90417	1372.78894	-1371.37854	1456.44849	1387.03748	-1421.60620	1129.89624	1383.67139	-1262.81702	1375.67651	1384.22815	-1233.73352	1197.60596	1451.33191	-1455.46167	1291.71399	1218.90454	-1301.97461	1406.17249	1149.79846	-1270.77014	1204.97144	1138.26563	-1249.83533	1093.67651	1136.61011	-1168.97571	965.01294	1202.75598	-1081.26746	885.47388	1153.63635	-1123.02771	856.38092	1169.45703	-1053.83521	800.42896	1539.70691	-1318.61316	1413.47656	1630.63403	-1374.77234	1221.42468	1645.02881	-1372.62695	1099.20398	1661.27344	-1351.19019	980.93188	1627.32776	-1281.40247	847.52466	1669.11584	-1334.94824	845.07935	1670.04260	-1291.64087	772.27966	1295.23938	-1243.26294	963.55316	1514.26123	-1260.58301	974.45343	1313.81055	-1403.07800	994.08679	1481.93286	-1409.70508	995.05902	1244.60303	-1330.21875	653.25977	1268.53271	-1353.92334	490.31726	1286.96558	-1406.20300	237.65408	1342.06018	-1412.61792	68.26705	1389.45129	-1450.58826	55.36430	1338.22290	-1267.39185	39.34946	1577.60828	-1241.42188	650.23279	1558.71851	-1193.66980	532.38971	1560.08362	-1237.19189	272.72357	1521.56238	-1251.43787	86.33646	1472.96826	-1285.87695	59.87780	1541.43274	-1105.13550	48.65834	1363.48779	-1343.09045	1702.49756																											 
2	0.010	1308.28271	-1238.12512	1662.09131	1440.01331	-1236.89612	1661.52490	1312.07764	-1370.54565	1604.27734	1441.25793	-1367.50342	1608.30530	1372.65979	-1367.00623	1456.13733	1386.87561	-1417.17310	1129.58813	1383.67090	-1258.52063	1375.37781	1384.14392	-1229.28894	1197.34473	1450.88599	-1451.13013	1291.31580	1218.99634	-1297.31592	1406.17761	1149.94409	-1266.05066	1205.04028	1138.70227	-1245.00134	1093.84668	1138.09631	-1163.31860	965.58057	1205.40710	-1075.75232	886.94861	1156.05505	-1116.72485	857.33752	1172.73596	-1047.29028	801.94031	1539.63745	-1314.60120	1413.05042	1630.23279	-1371.13672	1220.99060	1644.57373	-1369.17847	1098.83154	1660.95227	-1347.88367	980.59100	1627.54443	-1277.92029	847.12732	1669.00305	-1331.64771	844.70782	1670.25989	-1288.38037	771.84637	1294.71301	-1239.17603	963.09894	1513.94934	-1256.22778	974.46692	1313.61035	-1398.84045	993.82568	1481.75806	-1405.13184	994.82715	1244.55981	-1326.84802	652.92810	1268.54163	-1351.19202	490.11172	1287.04565	-1404.64587	237.56696	1342.20117	-1412.35583	68.30564	1389.56311	-1450.49756	55.50083	1338.16858	-1267.41003	39.23958	1576.49060	-1237.28235	650.53259	1558.18250	-1189.90027	532.16486	1560.13293	-1225.27832	270.90601	1522.01978	-1233.71179	84.24893	1473.93933	-1268.17981	57.38198	1538.24707	-1085.90698	48.22719	1363.88110	-1339.09241	1702.08167																											 
3	0.020	1308.94678	-1233.60510	1661.96826	1440.54871	-1232.81299	1661.13928	1312.29724	-1364.60315	1603.61707	1441.45215	-1363.37610	1607.67212	1372.63330	-1362.60669	1455.82471	1386.77820	-1412.66980	1129.28992	1383.68982	-1254.06384	1375.07495	1383.93225	-1224.66711	1197.04541	1450.49072	-1446.74231	1290.90698	1219.10791	-1292.97327	1406.26099	1150.21729	-1261.19250	1205.05847	1139.26050	-1239.19165	1093.74731	1139.62878	-1157.72864	966.00940	1208.22375	-1070.31348	888.19104	1158.52356	-1110.55884	858.14844	1176.18469	-1040.93481	803.36206	1539.61584	-1310.46887	1412.66101	1629.84692	-1367.39075	1220.47778	1644.30273	-1365.42273	1098.37158	1660.85828	-1344.28870	980.14990	1627.75732	-1274.28577	846.56647	1668.88586	-1328.25586	844.22125	1670.42126	-1285.12292	771.38000	1294.18909	-1235.03992	962.57324	1513.44189	-1250.93457	973.64484	1313.43420	-1394.51807	993.43945	1481.62817	-1400.40088	994.52319	1244.55469	-1323.38965	652.63354	1268.55615	-1348.34070	489.83792	1286.66602	-1403.51636	237.60205	1342.43738	-1412.16064	68.34480	1389.71228	-1450.41064	55.63995	1338.21094	-1267.34155	39.15702	1575.84949	-1233.35864	650.19189	1557.66956	-1186.16162	531.90131	1560.25598	-1214.12378	269.57355	1522.48633	-1216.40894	82.62079	1474.96570	-1251.06299	55.82474	1535.21265	-1067.29663	47.92542	1364.32898	-1335.03894	1701.67529																											 
4	0.030	1309.54053	-1229.35132	1661.87695	1441.15991	-1228.77087	1660.76855	1312.57153	-1360.23938	1603.27576	1441.74976	-1359.18469	1607.04126	1372.71692	-1358.07263	1455.48230	1386.72253	-1408.12402	1128.92786	1383.83411	-1249.51501	1374.71643	1383.93164	-1220.32642	1196.64221	1450.24060	-1442.26624	1290.42493	1219.39856	-1287.89014	1405.97644	1150.54480	-1256.19446	1205.08997	1139.49304	-1234.50940	1093.91614	1141.23547	-1151.82727	966.44452	1211.18811	-1064.95752	889.27698	1161.04822	-1104.60291	858.85107	1179.76123	-1034.82349	804.40747	1539.73218	-1306.20874	1412.16431	1629.59570	-1363.52832	1219.99548	1644.07275	-1361.67334	1097.89941	1660.73462	-1340.69153	979.60767	1628.00098	-1270.66968	845.97046	1668.89612	-1324.82092	843.67920	1670.75806	-1281.71448	770.87457	1293.68054	-1230.76563	962.12366	1512.98755	-1246.27527	973.50171	1313.32495	-1390.15442	993.05804	1481.50085	-1395.56152	994.17352	1244.45044	-1319.88733	652.21826	1268.58276	-1345.34424	489.57285	1287.18579	-1401.75891	237.56398	1342.48328	-1411.89661	68.42721	1389.81299	-1450.28259	55.72984	1338.19263	-1267.29773	39.07803	1575.29895	-1229.23425	649.79187	1556.98218	-1182.33850	531.56201	1560.07947	-1203.41589	268.54388	1522.80457	-1199.67078	81.40853	1475.80261	-1234.37842	54.71814	1532.37085	-1049.30383	47.65656	1364.86926	-1330.95483	1701.30286																											 
